<?xml version="1.0" encoding="UTF-8"?>
<svg xmlns="http://www.w3.org/2000/svg" viewBox="0 0 1600 900" preserveAspectRatio="xMidYMid slice">
  <defs>
    <linearGradient id="night" x1="0" y1="0" x2="0" y2="1">
      <stop offset="0%" stop-color="#1f2a3a"/>
      <stop offset="100%" stop-color="#3a4d6b"/>
    </linearGradient>
  </defs>
  <rect width="1600" height="900" fill="url(#night)"/>
  <g fill="#fff">
    <circle cx="200"  cy="160" r="2"/>
    <circle cx="500"  cy="100" r="3"/>
    <circle cx="900"  cy="180" r="2"/>
    <circle cx="1240" cy="120" r="3"/>
    <circle cx="1450" cy="220" r="2"/>
    <circle cx="700"  cy="240" r="2"/>
    <circle cx="1100" cy="60"  r="2"/>
  </g>
  <circle cx="1300" cy="220" r="60" fill="#fef3c4"/>
  <circle cx="1280" cy="210" r="58" fill="#1f2a3a"/>
  <g fill="#9adca5">
    <rect x="0" y="660" width="1600" height="240"/>
  </g>
  <g fill="#1f2a3a">
    <rect x="380" y="560" width="40" height="100"/>
    <circle cx="380" cy="540" r="30"/>
    <circle cx="430" cy="520" r="30"/>
    <rect x="900" y="540" width="50" height="120"/>
    <circle cx="880" cy="520" r="34"/>
    <circle cx="960" cy="500" r="34"/>
    <circle cx="1000" cy="540" r="34"/>
  </g>
</svg>
